<svg version="1.1" xmlns="http://www.w3.org/2000/svg" viewBox="0 0 2778.928571428571 1039.4523809523807" width="5557.857142857142" height="2078.9047619047615" filter="invert(93%) hue-rotate(180deg)">
  <!-- svg-source:excalidraw -->
  
  <defs>
    <style class="style-fonts">
      @font-face {
        font-family: "Virgil";
        src: url("https://excalidraw.com/Virgil.woff2");
      }
      @font-face {
        font-family: "Cascadia";
        src: url("https://excalidraw.com/Cascadia.woff2");
      }
      @font-face {
        font-family: "Assistant";
        src: url("https://excalidraw.com/Assistant-Regular.woff2");
      }
    </style>
    
  </defs>
  <rect x="0" y="0" width="2778.928571428571" height="1039.4523809523807" fill="#ffffff"></rect><g transform="translate(1360.5714285714287 10) rotate(0 116.84895833333348 21.599999999999994)"><text x="0" y="34.762499999999996" font-family="Cascadia, Segoe UI Emoji" font-size="36px" fill="#1e1e1e" text-anchor="start" style="white-space: pre;" direction="ltr" dominant-baseline="alphabetic">Vanguard DB</text></g><g transform="translate(29.749999999999943 131.0380952380953) rotate(0 73.828125 16.80000000000001)"><text x="0" y="27.0375" font-family="Cascadia, Segoe UI Emoji" font-size="28px" fill="#1e1e1e" text-anchor="start" style="white-space: pre;" direction="ltr" dominant-baseline="alphabetic">Customers</text></g><g transform="translate(2031.3861607142853 127.65238095238078) rotate(0 73.82812499999989 16.80000000000001)"><text x="0" y="27.0375" font-family="Cascadia, Segoe UI Emoji" font-size="28px" fill="#1e1e1e" text-anchor="start" style="white-space: pre;" direction="ltr" dominant-baseline="alphabetic">Favorites</text></g><g transform="translate(28.392770351986087 173.75234623603234) rotate(0 427.734375 156.00000000000003)"><text x="0" y="19.3125" font-family="Cascadia, Segoe UI Emoji" font-size="20px" fill="#1e1e1e" text-anchor="start" style="white-space: pre;" direction="ltr" dominant-baseline="alphabetic">name: { type: String, required: true },</text><text x="0" y="43.3125" font-family="Cascadia, Segoe UI Emoji" font-size="20px" fill="#1e1e1e" text-anchor="start" style="white-space: pre;" direction="ltr" dominant-baseline="alphabetic">username: { type: String, required: true, unique: true },</text><text x="0" y="67.3125" font-family="Cascadia, Segoe UI Emoji" font-size="20px" fill="#1e1e1e" text-anchor="start" style="white-space: pre;" direction="ltr" dominant-baseline="alphabetic">gov_id: { type: String, required: true, unique: true },</text><text x="0" y="91.3125" font-family="Cascadia, Segoe UI Emoji" font-size="20px" fill="#1e1e1e" text-anchor="start" style="white-space: pre;" direction="ltr" dominant-baseline="alphabetic">address: { type: String, required: true },</text><text x="0" y="115.3125" font-family="Cascadia, Segoe UI Emoji" font-size="20px" fill="#1e1e1e" text-anchor="start" style="white-space: pre;" direction="ltr" dominant-baseline="alphabetic">cell_phone: { type: String, required: true },</text><text x="0" y="139.3125" font-family="Cascadia, Segoe UI Emoji" font-size="20px" fill="#1e1e1e" text-anchor="start" style="white-space: pre;" direction="ltr" dominant-baseline="alphabetic">email_address: { type: String, required: true, unique: true },</text><text x="0" y="163.3125" font-family="Cascadia, Segoe UI Emoji" font-size="20px" fill="#1e1e1e" text-anchor="start" style="white-space: pre;" direction="ltr" dominant-baseline="alphabetic">password: { type: String, required: true }, </text><text x="0" y="187.3125" font-family="Cascadia, Segoe UI Emoji" font-size="20px" fill="#1e1e1e" text-anchor="start" style="white-space: pre;" direction="ltr" dominant-baseline="alphabetic">work_name: { type: String, required: true },</text><text x="0" y="211.3125" font-family="Cascadia, Segoe UI Emoji" font-size="20px" fill="#1e1e1e" text-anchor="start" style="white-space: pre;" direction="ltr" dominant-baseline="alphabetic">monthly_income: { type: Number, required: true, min: 100 },</text><text x="0" y="235.3125" font-family="Cascadia, Segoe UI Emoji" font-size="20px" fill="#1e1e1e" text-anchor="start" style="white-space: pre;" direction="ltr" dominant-baseline="alphabetic">role: { type: String, enum: ['customer', 'admin'], default: 'customer' },</text><text x="0" y="259.3125" font-family="Cascadia, Segoe UI Emoji" font-size="20px" fill="#1e1e1e" text-anchor="start" style="white-space: pre;" direction="ltr" dominant-baseline="alphabetic">created_at: { type: Date, default: Date.now },</text><text x="0" y="283.3125" font-family="Cascadia, Segoe UI Emoji" font-size="20px" fill="#1e1e1e" text-anchor="start" style="white-space: pre;" direction="ltr" dominant-baseline="alphabetic">updated_at: { type: Date, default: Date.now }</text><text x="0" y="307.3125" font-family="Cascadia, Segoe UI Emoji" font-size="20px" fill="#1e1e1e" text-anchor="start" style="white-space: pre;" direction="ltr" dominant-baseline="alphabetic"></text></g><g stroke-linecap="round" transform="translate(10 102.09523809523813) rotate(0 445.23809523809496 217.14285714285714)"><path d="M32 0 C246.53 -0.78, 460.3 -1.66, 858.48 0 M32 0 C260.23 2.51, 488.37 3.25, 858.48 0 M858.48 0 C878.65 -1.73, 892.11 9.66, 890.48 32 M858.48 0 C879.65 -1.23, 892.69 11.81, 890.48 32 M890.48 32 C890.53 170.51, 892.43 306.99, 890.48 402.29 M890.48 32 C891.85 125.37, 892.76 218.75, 890.48 402.29 M890.48 402.29 C889.38 423.52, 878.53 432.53, 858.48 434.29 M890.48 402.29 C890.14 423.9, 878.87 436.41, 858.48 434.29 M858.48 434.29 C661.8 436.86, 463.65 437.56, 32 434.29 M858.48 434.29 C685.19 435.76, 511.53 435.85, 32 434.29 M32 434.29 C8.97 433.62, -0.41 423.11, 0 402.29 M32 434.29 C12.5 435.73, 1.04 425.06, 0 402.29 M0 402.29 C1.01 262.61, 1.61 122.64, 0 32 M0 402.29 C-0.08 307.64, -1.15 211.7, 0 32 M0 32 C0.92 10.65, 9.23 -1.85, 32 0 M0 32 C0.45 12.13, 11.42 -2.01, 32 0" stroke="#1e1e1e" stroke-width="2" fill="none"></path></g><g transform="translate(979.5714285714284 131.03809523809542) rotate(0 65.625 16.80000000000001)"><text x="0" y="27.0375" font-family="Cascadia, Segoe UI Emoji" font-size="28px" fill="#1e1e1e" text-anchor="start" style="white-space: pre;" direction="ltr" dominant-baseline="alphabetic">Accounts</text></g><g transform="translate(982.301587301587 173.5460317460316) rotate(0 457.03125 72)"><text x="0" y="19.3125" font-family="Cascadia, Segoe UI Emoji" font-size="20px" fill="#1e1e1e" text-anchor="start" style="white-space: pre;" direction="ltr" dominant-baseline="alphabetic">customer_id: { type: Schema.Types.ObjectId, ref: 'Customer', required: true },</text><text x="0" y="43.3125" font-family="Cascadia, Segoe UI Emoji" font-size="20px" fill="#1e1e1e" text-anchor="start" style="white-space: pre;" direction="ltr" dominant-baseline="alphabetic">account_no: { type: String, required: true, unique: true }, </text><text x="0" y="67.3125" font-family="Cascadia, Segoe UI Emoji" font-size="20px" fill="#1e1e1e" text-anchor="start" style="white-space: pre;" direction="ltr" dominant-baseline="alphabetic">balance: { type: Number, required: true, default: 0 },</text><text x="0" y="91.3125" font-family="Cascadia, Segoe UI Emoji" font-size="20px" fill="#1e1e1e" text-anchor="start" style="white-space: pre;" direction="ltr" dominant-baseline="alphabetic">created_at: { type: Date, default: Date.now },</text><text x="0" y="115.3125" font-family="Cascadia, Segoe UI Emoji" font-size="20px" fill="#1e1e1e" text-anchor="start" style="white-space: pre;" direction="ltr" dominant-baseline="alphabetic">updated_at: { type: Date, default: Date.now }</text><text x="0" y="139.3125" font-family="Cascadia, Segoe UI Emoji" font-size="20px" fill="#1e1e1e" text-anchor="start" style="white-space: pre;" direction="ltr" dominant-baseline="alphabetic"></text></g><g stroke-linecap="round" transform="translate(959.9999999999998 99.2380952380953) rotate(0 494.9999999999998 220.71428571428567)"><path d="M32 0 C263.07 4.33, 494.17 4.22, 958 0 M32 0 C281.73 1.84, 531.1 1.66, 958 0 M958 0 C978.42 -0.4, 988.66 11.72, 990 32 M958 0 C981.05 1.68, 987.72 12.03, 990 32 M990 32 C990.09 121.46, 988.56 210.73, 990 409.43 M990 32 C991.62 163.44, 991.59 295.63, 990 409.43 M990 409.43 C991.73 431.37, 977.62 441.6, 958 441.43 M990 409.43 C991.99 429.53, 977.05 440, 958 441.43 M958 441.43 C677.27 442.28, 395.63 442.38, 32 441.43 M958 441.43 C661.43 439.89, 364.2 439.59, 32 441.43 M32 441.43 C8.86 442.04, 0.33 431.17, 0 409.43 M32 441.43 C12.94 441.78, 0.28 428.54, 0 409.43 M0 409.43 C-1.92 332.64, -0.56 253.94, 0 32 M0 409.43 C-1.81 316.45, -1.6 222.6, 0 32 M0 32 C0.68 10.57, 10.15 0.1, 32 0 M0 32 C-0.8 10.78, 10.73 -0.05, 32 0" stroke="#1e1e1e" stroke-width="2" fill="none"></path></g><g stroke-linecap="round" transform="translate(2013.2142857142856 103.1666666666664) rotate(0 377.8571428571429 220.71428571428567)"><path d="M32 0 C253.86 -0.98, 475.04 -1.19, 723.71 0 M32 0 C194.85 2.17, 357.65 2.6, 723.71 0 M723.71 0 C746.25 1.52, 755.96 9.33, 755.71 32 M723.71 0 C746.18 1.82, 756.65 12.28, 755.71 32 M755.71 32 C754.06 125.8, 754.15 218.92, 755.71 409.43 M755.71 32 C755.4 115.49, 756.44 200.32, 755.71 409.43 M755.71 409.43 C756.76 431.47, 744.22 443.37, 723.71 441.43 M755.71 409.43 C757.9 429.95, 743.21 441.48, 723.71 441.43 M723.71 441.43 C558.29 441.13, 391.48 440.73, 32 441.43 M723.71 441.43 C456.37 441.76, 188.51 442.36, 32 441.43 M32 441.43 C11.79 442.49, 1.67 430.13, 0 409.43 M32 441.43 C9.7 441.46, 1.03 428.6, 0 409.43 M0 409.43 C-1.63 327.37, -0.93 247.66, 0 32 M0 409.43 C-0.91 265.36, -0.74 120.41, 0 32 M0 32 C0.45 12.08, 11.74 -0.08, 32 0 M0 32 C-1.72 9.27, 11.37 0.55, 32 0" stroke="#1e1e1e" stroke-width="2" fill="none"></path></g><g transform="translate(2031.2165178571422 171.3571428571426) rotate(0 357.4218749999999 72)"><text x="0" y="19.3125" font-family="Cascadia, Segoe UI Emoji" font-size="20px" fill="#1e1e1e" text-anchor="start" style="white-space: pre;" direction="ltr" dominant-baseline="alphabetic">account_no: { type: String, ref: 'Account', required: true },</text><text x="0" y="43.3125" font-family="Cascadia, Segoe UI Emoji" font-size="20px" fill="#1e1e1e" text-anchor="start" style="white-space: pre;" direction="ltr" dominant-baseline="alphabetic">favorite_account_no: { type: String, required: true },</text><text x="0" y="67.3125" font-family="Cascadia, Segoe UI Emoji" font-size="20px" fill="#1e1e1e" text-anchor="start" style="white-space: pre;" direction="ltr" dominant-baseline="alphabetic">alias: { type: String, required: true },</text><text x="0" y="91.3125" font-family="Cascadia, Segoe UI Emoji" font-size="20px" fill="#1e1e1e" text-anchor="start" style="white-space: pre;" direction="ltr" dominant-baseline="alphabetic">created_at: { type: Date, default: Date.now }</text><text x="0" y="115.3125" font-family="Cascadia, Segoe UI Emoji" font-size="20px" fill="#1e1e1e" text-anchor="start" style="white-space: pre;" direction="ltr" dominant-baseline="alphabetic"></text><text x="0" y="139.3125" font-family="Cascadia, Segoe UI Emoji" font-size="20px" fill="#1e1e1e" text-anchor="start" style="white-space: pre;" direction="ltr" dominant-baseline="alphabetic"></text></g><g stroke-linecap="round" transform="translate(209.40476190476198 594.2380952380952) rotate(0 708.5714285714284 217.14285714285717)"><path d="M32 0 C432.21 4.06, 832.38 4.27, 1385.14 0 M32 0 C535.73 4.68, 1040.14 4.61, 1385.14 0 M1385.14 0 C1407.34 -1.08, 1416.85 11.88, 1417.14 32 M1385.14 0 C1406.77 -0.71, 1417.49 9.84, 1417.14 32 M1417.14 32 C1418.5 180.25, 1418.15 328.51, 1417.14 402.29 M1417.14 32 C1417.36 167.81, 1417.16 303.03, 1417.14 402.29 M1417.14 402.29 C1417 425.03, 1407.47 435.76, 1385.14 434.29 M1417.14 402.29 C1415.12 424.16, 1406.1 433.18, 1385.14 434.29 M1385.14 434.29 C938.77 434.04, 491.98 434.43, 32 434.29 M1385.14 434.29 C1042.83 438.77, 701.45 438.56, 32 434.29 M32 434.29 C8.82 435.52, 0.1 424.75, 0 402.29 M32 434.29 C10.45 435.94, -0.8 423.57, 0 402.29 M0 402.29 C1.47 316.02, -0.04 231.21, 0 32 M0 402.29 C-1.76 316.93, -1.41 231.89, 0 32 M0 32 C0.94 8.99, 12.13 1.4, 32 0 M0 32 C0.64 9.45, 12.7 0.29, 32 0" stroke="#1e1e1e" stroke-width="2" fill="none"></path></g><g transform="translate(232.1924603174603 627.4380952380953) rotate(0 98.4375 16.80000000000001)"><text x="0" y="27.0375" font-family="Cascadia, Segoe UI Emoji" font-size="28px" fill="#1e1e1e" text-anchor="start" style="white-space: pre;" direction="ltr" dominant-baseline="alphabetic">Transactions</text></g><g stroke-linecap="round" transform="translate(1681.547619047619 595.1666666666666) rotate(0 430.57142857142844 217.1428571428571)"><path d="M32 0 C208.43 2.47, 383.93 1.93, 829.14 0 M32 0 C207.66 -0.3, 383.4 -0.33, 829.14 0 M829.14 0 C852.12 1.18, 859.91 11.16, 861.14 32 M829.14 0 C852.64 1.83, 861.44 8.68, 861.14 32 M861.14 32 C860.88 160.08, 862.37 286.55, 861.14 402.29 M861.14 32 C862.75 173.59, 863.15 315.58, 861.14 402.29 M861.14 402.29 C860.38 424.05, 849.86 432.36, 829.14 434.29 M861.14 402.29 C861.39 421.6, 852.1 432.3, 829.14 434.29 M829.14 434.29 C610.66 436.27, 392.89 436.51, 32 434.29 M829.14 434.29 C544.27 432.35, 259.76 431.87, 32 434.29 M32 434.29 C8.77 432.4, -1.29 422.67, 0 402.29 M32 434.29 C11.81 434.59, 1.63 421.6, 0 402.29 M0 402.29 C1 283.74, 1.59 166.19, 0 32 M0 402.29 C-0.89 255.69, -1.65 109.47, 0 32 M0 32 C0.46 9.23, 9.55 -1.74, 32 0 M0 32 C0.48 11.65, 11.44 1.91, 32 0" stroke="#1e1e1e" stroke-width="2" fill="none"></path></g><g transform="translate(1698.0654761904761 626.3666666666669) rotate(0 139.453125 16.80000000000001)"><text x="0" y="27.0375" font-family="Cascadia, Segoe UI Emoji" font-size="28px" fill="#1e1e1e" text-anchor="start" style="white-space: pre;" direction="ltr" dominant-baseline="alphabetic">Products_Services</text></g><g transform="translate(233.43874007936535 672.8174603174601) rotate(0 691.40625 96)"><text x="0" y="19.3125" font-family="Cascadia, Segoe UI Emoji" font-size="20px" fill="#1e1e1e" text-anchor="start" style="white-space: pre;" direction="ltr" dominant-baseline="alphabetic">account_no: { type: String, ref: 'Account', required: true },</text><text x="0" y="43.3125" font-family="Cascadia, Segoe UI Emoji" font-size="20px" fill="#1e1e1e" text-anchor="start" style="white-space: pre;" direction="ltr" dominant-baseline="alphabetic">transaction_type: { type: String, enum: ['Deposit', 'Withdrawal', 'Transfer', 'Purchase', 'Credit'], required: true },</text><text x="0" y="67.3125" font-family="Cascadia, Segoe UI Emoji" font-size="20px" fill="#1e1e1e" text-anchor="start" style="white-space: pre;" direction="ltr" dominant-baseline="alphabetic">amount: { type: Number, required: true },</text><text x="0" y="91.3125" font-family="Cascadia, Segoe UI Emoji" font-size="20px" fill="#1e1e1e" text-anchor="start" style="white-space: pre;" direction="ltr" dominant-baseline="alphabetic">date: { type: Date, default: Date.now },</text><text x="0" y="115.3125" font-family="Cascadia, Segoe UI Emoji" font-size="20px" fill="#1e1e1e" text-anchor="start" style="white-space: pre;" direction="ltr" dominant-baseline="alphabetic">description: { type: String },</text><text x="0" y="139.3125" font-family="Cascadia, Segoe UI Emoji" font-size="20px" fill="#1e1e1e" text-anchor="start" style="white-space: pre;" direction="ltr" dominant-baseline="alphabetic">from_account_no: { type: String, ref: 'Account' },</text><text x="0" y="163.3125" font-family="Cascadia, Segoe UI Emoji" font-size="20px" fill="#1e1e1e" text-anchor="start" style="white-space: pre;" direction="ltr" dominant-baseline="alphabetic">to_account_no: { type: String, ref: 'Account' }</text><text x="0" y="187.3125" font-family="Cascadia, Segoe UI Emoji" font-size="20px" fill="#1e1e1e" text-anchor="start" style="white-space: pre;" direction="ltr" dominant-baseline="alphabetic"></text></g><g transform="translate(1699.978422619048 670.5952380952381) rotate(0 404.296875 96)"><text x="0" y="19.3125" font-family="Cascadia, Segoe UI Emoji" font-size="20px" fill="#1e1e1e" text-anchor="start" style="white-space: pre;" direction="ltr" dominant-baseline="alphabetic">name: { type: String, required: true },</text><text x="0" y="43.3125" font-family="Cascadia, Segoe UI Emoji" font-size="20px" fill="#1e1e1e" text-anchor="start" style="white-space: pre;" direction="ltr" dominant-baseline="alphabetic">description: { type: String, required: true },</text><text x="0" y="67.3125" font-family="Cascadia, Segoe UI Emoji" font-size="20px" fill="#1e1e1e" text-anchor="start" style="white-space: pre;" direction="ltr" dominant-baseline="alphabetic">price: { type: Number, required: true },</text><text x="0" y="91.3125" font-family="Cascadia, Segoe UI Emoji" font-size="20px" fill="#1e1e1e" text-anchor="start" style="white-space: pre;" direction="ltr" dominant-baseline="alphabetic">type: { type: String, enum: ['product', 'service'], required: true },</text><text x="0" y="115.3125" font-family="Cascadia, Segoe UI Emoji" font-size="20px" fill="#1e1e1e" text-anchor="start" style="white-space: pre;" direction="ltr" dominant-baseline="alphabetic">created_at: { type: Date, default: Date.now },</text><text x="0" y="139.3125" font-family="Cascadia, Segoe UI Emoji" font-size="20px" fill="#1e1e1e" text-anchor="start" style="white-space: pre;" direction="ltr" dominant-baseline="alphabetic">updated_at: { type: Date, default: Date.now }</text><text x="0" y="163.3125" font-family="Cascadia, Segoe UI Emoji" font-size="20px" fill="#1e1e1e" text-anchor="start" style="white-space: pre;" direction="ltr" dominant-baseline="alphabetic"></text><text x="0" y="187.3125" font-family="Cascadia, Segoe UI Emoji" font-size="20px" fill="#1e1e1e" text-anchor="start" style="white-space: pre;" direction="ltr" dominant-baseline="alphabetic"></text></g></svg>